<?xml version="1.0" standalone="no"?>
<!DOCTYPE svg PUBLIC "-//W3C//DTD SVG 1.1//EN" "http://www.w3.org/Graphics/SVG/1.1/DTD/svg11.dtd" >
<!--
2013-9-30: Created.
-->
<svg>
<metadata>
Created by iconfont
</metadata>
<defs>

<font id="iconfont" horiz-adv-x="1024" >
  <font-face
    font-family="iconfont"
    font-weight="500"
    font-stretch="normal"
    units-per-em="1024"
    ascent="896"
    descent="-128"
  />
    <missing-glyph />
    
    <glyph glyph-name="tishi" unicode="&#58881;" d="M187.732004 739.473221c-13.330296 13.331627-34.948251 13.331627-48.263899 0-13.335622-13.326301-13.335622-34.937598 0-48.274552l48.263899-48.263899c13.331627-13.331627 34.933604-13.331627 48.269226 0 13.326301 13.326301 13.326301 34.932272 0 48.263899L187.732004 739.473221 187.732004 739.473221 187.732004 739.473221zM836.261339 739.473221l-48.269226-48.274552c-13.326301-13.331627-13.326301-34.937598 0-48.263899 13.315648-13.331627 34.932272-13.331627 48.269226 0l48.258573 48.263899c13.336953 13.336953 13.336953 34.942925 0 48.274552C871.194942 752.799522 849.592966 752.799522 836.261339 739.473221L836.261339 739.473221 836.261339 739.473221zM102.402665 469.33733L34.139994 469.33733C15.28903 469.33733 0.002666 454.054961 0.002666 435.210655c0-18.854958 15.28237-34.137328 34.137328-34.137328l68.262672 0c18.850963 0 34.132002 15.28237 34.132002 34.137328C136.534667 454.054961 121.253629 469.33733 102.402665 469.33733L102.402665 469.33733 102.402665 469.33733zM989.85468 469.33733l-68.264003 0c-18.849632 0-34.137328-15.28237-34.137328-34.126675 0-18.854958 15.286364-34.137328 34.137328-34.137328l68.264003 0c18.849632 0 34.142654 15.28237 34.142654 34.137328C1023.997334 454.054961 1008.704312 469.33733 989.85468 469.33733L989.85468 469.33733 989.85468 469.33733zM477.862672 861.867998l0-68.264003c0-18.854958 15.28237-34.13067 34.132002-34.13067 18.844306 0 34.137328 15.275712 34.137328 34.13067L546.132002 861.867998C546.132002 880.71763 530.838979 896 511.994674 896 493.145042 896 477.862672 880.71763 477.862672 861.867998L477.862672 861.867998 477.862672 861.867998zM273.066668 384.007992c0 131.955413 106.967267 238.928006 238.928006 238.928006 131.960739 0 238.933332-106.972593 238.933332-238.928006 0-131.960739-106.972593-238.937327-238.933332-238.937327C380.033935 145.07066499999996 273.066668 252.048585 273.066668 384.007992L273.066668 384.007992 273.066668 384.007992zM204.803996 384.007992c0-169.675982 137.525348-307.211982 307.190677-307.211982S819.190677 214.33201099999997 819.190677 384.007992c0 169.665329-137.530675 307.190677-307.196004 307.190677S204.803996 553.673321 204.803996 384.007992L204.803996 384.007992 204.803996 384.007992zM443.730671-93.86266699999999c0-18.838979 15.28237-34.137328 34.132002-34.137328l68.269329 0c18.849632 0 34.132002 15.297017 34.132002 34.137328 0 18.860284-15.28237 34.132002-34.132002 34.132002l-68.269329 0C459.01304-59.730665000000045 443.730671-75.00238200000001 443.730671-93.86266699999999L443.730671-93.86266699999999 443.730671-93.86266699999999zM375.467999 8.533337999999958c0-18.834985 15.281038-34.132002 34.126675-34.132002l204.799999 0c18.849632 0 34.132002 15.297017 34.132002 34.132002 0 18.865611-15.28237 34.142654-34.132002 34.142654L409.594674 42.67599199999995C390.743711 42.674661000000015 375.467999 27.398949000000016 375.467999 8.533337999999958L375.467999 8.533337999999958 375.467999 8.533337999999958zM375.467999 8.533337999999958"  horiz-adv-x="1025" />

    
    <glyph glyph-name="tishi1" unicode="&#58900;" d="M511.2832 40.3456C321.6384 40.3456 167.936 194.048 167.936 383.6928 167.936 573.3376 321.6384 727.04 511.2832 727.04c189.6448 0 343.3472-153.7024 343.3472-343.3472 0-189.6448-153.7024-343.3472-343.3472-343.3472z m0 640.9216c-164.352 0-297.5744-133.2224-297.5744-297.5744 0-164.352 133.2224-297.5744 297.5744-297.5744s297.5744 133.2224 297.5744 297.5744c0 164.352-133.2224 297.5744-297.5744 297.5744z m0-503.6032c-25.2928 0-45.7728 20.48-45.7728 45.7728 0 25.2928 20.48 45.7728 45.7728 45.7728 25.2928 0 45.7728-20.48 45.7728-45.7728 0-25.2928-20.48-45.7728-45.7728-45.7728z m0 137.3184c-12.5952 0-22.9376 20.48-22.9376 45.7728l-22.9376 206.0288c0 25.2928 20.48 45.7728 45.7728 45.7728 25.2928 0 45.7728-20.48 45.7728-45.7728l-22.9376-206.0288c0.2048-25.2928-10.0352-45.7728-22.7328-45.7728z m0 0"  horiz-adv-x="1024" />

    
    <glyph glyph-name="tishi2" unicode="&#59007;" d="M967.258353 588.077176a501.398588 501.398588 0 0 1-107.821177 159.924706A501.458824 501.458824 0 0 1 503.747765 895.397647a501.639529 501.639529 0 0 1-355.749647-147.335529A501.458824 501.458824 0 0 1 0.662588 392.252235a501.217882 501.217882 0 0 1 147.395765-355.749647 501.338353 501.338353 0 0 1 355.689412-147.335529 501.278118 501.278118 0 0 1 355.749647 147.335529 501.398588 501.398588 0 0 1 147.335529 355.749647 499.952941 499.952941 0 0 1-39.574588 195.824941z m-64.451765-364.363294a431.766588 431.766588 0 0 0-92.882823-137.637647 431.887059 431.887059 0 0 0-306.236236-126.855529 431.525647 431.525647 0 0 0-306.236235 126.855529 431.766588 431.766588 0 0 0-126.795294 306.176 431.646118 431.646118 0 0 0 126.855529 306.236236 431.766588 431.766588 0 0 0 306.176 126.855529 431.585882 431.585882 0 0 0 306.236236-126.855529 431.646118 431.646118 0 0 0 126.855529-306.236236c0-58.428235-11.444706-115.169882-34.032941-168.538353zM546.334118 314.970353c-2.831059-31.563294-22.889412-46.381176-42.767059-46.381177-14.697412 0 0 0 0 0-18.793412 3.614118-33.370353 11.625412-39.755294 43.550118l-25.901177 298.465882c0 29.997176 36.442353 56.500706 67.343059 56.500706 30.960941 0 64.331294-27.708235 64.331294-57.705411L546.334118 314.970353z m-42.586353-85.353412a56.018824 56.018824 0 1 1 0-112.158117 56.018824 56.018824 0 0 1 0 112.158117z"  horiz-adv-x="1024" />

    
    <glyph glyph-name="upload" unicode="&#59107;" d="M909-1H115a50 50 0 0 0-50 50V719a50 50 0 0 0 50 50h370a50 50 0 0 0 50-50v-62a10 10 0 0 1 10-10h241a50 50 0 0 0 50-50v-58h73a50 50 0 0 0 50-50v-440a50 50 0 0 0-50-50zM505 587a30 30 0 0 0-30 30v72a20 20 0 0 1-20 20H145a20 20 0 0 1-20-20v-610c0-11.046 9.377-20 20.422-20H209a20 20 0 0 1 20 20V489a50 50 0 0 0 50 50h497v28a20 20 0 0 1-20 20H535m364-128a20 20 0 0 1-20 20H309a20 20 0 0 1-20-20v-400h590a20 20 0 0 1 20 20V459zM650.659 280.20000000000005l-26.618 26.53V159a30 30 0 0 0-30-30h-0.113a30 30 0 0 0-30 30V306.725L537.309 280.20000000000005a30.006 30.006 0 0 0-42.509 42.36l77.928 77.669a30.127 30.127 0 0 0 42.506 0l77.929-77.669a30.007 30.007 0 0 0-42.504-42.36z"  horiz-adv-x="1024" />

    
    <glyph glyph-name="xinzeng" unicode="&#59881;" d="M608 384c105.61 0 192 86.402 192 192s-86.39 192-192 192-192-86.402-192-192 86.39-192 192-192z m0-96c-127.196 0-384-64.804-384-192v-96h768v96c0 127.196-256.804 192-384 192z m-384 160v128H160v-128H32v-64h128v-128h64v128h128v64h-128z"  horiz-adv-x="1024" />

    
    <glyph glyph-name="dianji" unicode="&#59086;" d="M512 554.666667c-94.293333 0-170.666667-76.373333-170.666667-170.666667s76.373333-170.666667 170.666667-170.666667 170.666667 76.373333 170.666667 170.666667-76.373333 170.666667-170.666667 170.666667z m381.44-128C873.813333 604.586667 732.586667 745.8133330000001 554.666667 765.44V853.333333h-85.333334v-87.893333C291.413333 745.8133330000001 150.186667 604.586667 130.56 426.666667H42.666667v-85.333334h87.893333c19.626667-177.92 160.853333-319.146667 338.773333-338.773333V-85.33333300000004h85.333334v87.893333c177.92 19.626667 319.146667 160.853333 338.773333 338.773333H981.333333v85.333334h-87.893333zM512 85.33333300000004c-164.906667 0-298.666667 133.76-298.666667 298.666667s133.76 298.666667 298.666667 298.666667 298.666667-133.76 298.666667-298.666667-133.76-298.666667-298.666667-298.666667z"  horiz-adv-x="1024" />

    
    <glyph glyph-name="dianzan" unicode="&#58880;" d="M839.72369067 462.09706667h-209.09624889c81.0231277 299.23616237-55.8245357 314.5194003-55.8245357 314.5194003-58.00057363 0-45.97714489-45.86427733-50.36320238-53.51135764 0-146.33946075-155.43440118-261.0092563-155.43440118-261.0092563v-414.99579733c0-40.96485452 55.8245357-55.7177363 77.72326873-55.71773629h314.16744772c29.56765867 0 53.64485689 77.5412243 53.64485688 77.54122429 77.72448237 264.29212445 77.72448237 342.92804267 77.72448237 342.92804267 0.00121363 54.60483792-52.54166755 50.24183941-52.54166755 50.24183941v0 0zM839.72369067 462.09706667zM283.19683318 461.95992652h-125.206528c-25.85759289 0-26.25687703-25.39762725-26.25687703-25.39762727l25.85759288-418.53716858c0-26.63917037 26.68407467-26.63917037 26.68407467-26.63917037h108.36620327c22.57593837 0 22.37568948 17.62190222 22.37568948 17.62190222v421.21322193c0 32.14419437-31.82258252 31.73762845-31.82258253 31.73762844v0 0zM283.19683318 461.95992652z"  horiz-adv-x="1024" />

    
    <glyph glyph-name="xinfeng" unicode="&#58959;" d="M912 626.9c0-23.5-7.3-46-21.9-67.4-14.6-21.4-32.8-39.7-54.5-54.9-111.9-77.7-181.5-126-208.9-145.1-3-2.1-9.3-6.7-19-13.6-9.7-7-17.7-12.7-24.1-17s-14.2-9.1-23.2-14.6c-9.1-5.4-17.7-9.4-25.6-12-8.1-2.7-15.5-4-22.3-4h-1c-6.9 0-14.3 1.3-22.3 4-8.1 2.7-16.6 6.7-25.6 12-9.1 5.4-16.8 10.2-23.2 14.6-6.4 4.3-14.5 10-24.1 17-9.7 6.9-16 11.5-19 13.6-27 19.1-66.1 46.2-117 81.5-50.9 35.3-81.4 56.4-91.5 63.7-18.5 12.5-35.9 29.7-52.2 51.5-16.4 21.7-24.6 42.1-24.6 60.8 0 23.2 6.2 42.5 18.5 58s30 23.2 52.9 23.2h657.2c19.3 0 36.1-7 50.2-20.9 14.2-14 21.2-30.8 21.2-50.4z m0-131.3v-354.5c0-19.6-7-36.4-20.9-50.4-14-14-30.8-20.9-50.4-20.9H183.5c-19.6 0-36.4 7-50.4 20.9-14.1 13.9-21 30.8-21 50.4V495.6c13.1-14.6 28.2-27.5 45.1-38.9 107.7-73.2 181.7-124.6 221.9-154 17-12.5 30.7-22.3 41.3-29.2 10.5-7 24.6-14.2 42.2-21.4 17.6-7.3 33.9-10.9 49.1-10.9h1c15.2 0 31.5 3.7 49.1 10.9 17.6 7.3 31.6 14.5 42.2 21.4 10.5 6.9 24.3 16.7 41.3 29.2 50.6 36.6 124.7 88 222.3 154 16.7 11.7 31.6 24.6 44.4 38.9z"  horiz-adv-x="1024" />

    
    <glyph glyph-name="heart" unicode="&#59207;" d="M681.1 737.85c10.45 0 21.56-0.57 33.47-1.72 72.4-7.06 156.11-73.36 166.34-200.37v-42.27C871.42 371.9 779.62 221.96000000000004 511.4 33.809999999999945 243.15 221.96000000000004 151.39 371.91999999999996 141.9 493.48v42.27c10.19 127.01 93.9 193.29 166.3 200.37 11.89 1.15 23.02 1.72 33.47 1.72 83.64 0 123.78-36.16 169.72-90.89 45.96 54.74 86.05 90.9 169.71 90.9"  horiz-adv-x="1024" />

    
    <glyph glyph-name="quxiao1" unicode="&#58926;" d="M465.2 136.666667l216.266667 216.266666 216.266666-216.266666c8.533333-8.533333 22.4-8.533333 30.933334 0 8.533333 8.533333 8.533333 22.4 0 30.933333L712.4 383.866667 928.666667 600c8.533333 8.533333 8.533333 22.4 0 30.933333-8.533333 8.533333-22.4 8.533333-30.933334 0L681.466667 414.666667 465.2 630.933333c-8.533333 8.533333-22.4 8.533333-30.933333 0-8.533333-8.533333-8.533333-22.4 0-30.933333L650.666667 383.866667 434.4 167.6c-8.533333-8.533333-8.533333-22.4 0-30.933333 8.533333-8.533333 22.4-8.533333 30.8 0z m0 0"  horiz-adv-x="1365" />

    
    <glyph glyph-name="zuoyoujiantou" unicode="&#58936;" d="M281.2415999999998-40.60159999999985L317.43999999999994-76.79999999999995 768 373.7599999999999l-450.5599999999998 450.56000000000023-36.1984-36.1984L695.6032 373.7599999999999z"  horiz-adv-x="1024" />

    
    <glyph glyph-name="zuoyoujiantou1" unicode="&#58979;" d="M742.758 808.602L706.56 844.8 256 394.24l450.56-450.56 36.198 36.198L328.397 394.24z"  horiz-adv-x="1024" />

    
    <glyph glyph-name="quxiao" unicode="&#58955;" d="M512 896C229.1712 896 0 666.8288 0 384s229.1712-512 512-512 512 229.1712 512 512S794.8288 896 512 896z m321.3312-833.3312a452.5056 452.5056 0 0 0-321.3312-133.12 450.9184 450.9184 0 0 0-176.8448 35.6352 453.7344 453.7344 0 0 0-144.4864 97.4848A452.5056 452.5056 0 0 0 57.5488 384c0 61.3376 11.9296 120.9344 35.6352 176.8448a453.7344 453.7344 0 0 0 97.4848 144.4864A452.5056 452.5056 0 0 0 512 838.4512c61.3376 0 120.9344-11.9296 176.8448-35.6352a453.7344 453.7344 0 0 0 144.4864-97.4848 452.5056 452.5056 0 0 0 133.12-321.3312 452.5056 452.5056 0 0 0-133.12-321.3312z m-97.536 504.3712L552.7552 384l183.04-183.04-40.7552-40.7552L512 343.2448 328.96 160.256l-40.7552 40.7552L471.2448 384 288.256 567.04l40.7552 40.7552L512 424.7552l183.04 183.04 40.7552-40.7552z"  horiz-adv-x="1024" />

    
    <glyph glyph-name="un-full-screen" unicode="&#58965;" d="M384 864v-320c0-17.92-14.080-32-32-32h-320c-17.92 0-32 14.080-32 32s14.080 32 32 32h288v288c0 17.92 14.080 32 32 32s32-14.080 32-32zM672 512h320c17.92 0 32 14.080 32 32s-14.080 32-32 32h-288v288c0 17.92-14.080 32-32 32s-32-14.080-32-32v-320c0-17.92 14.080-32 32-32zM352 256h-320c-17.92 0-32-14.080-32-32s14.080-32 32-32h288v-288c0-17.92 14.080-32 32-32s32 14.080 32 32v320c0 17.92-14.080 32-32 32zM992 256h-320c-17.92 0-32-14.080-32-32v-320c0-17.92 14.080-32 32-32s32 14.080 32 32v288h288c17.92 0 32 14.080 32 32s-14.080 32-32 32z"  horiz-adv-x="1024" />

    
    <glyph glyph-name="quanping1" unicode="&#58999;" d="M67.712 828.288h211.136a33.408 33.408 0 0 1 0 66.688H34.368A33.152 33.152 0 0 1 10.88 885.12a32.832 32.832 0 0 1-9.792-23.488v-244.48a33.408 33.408 0 0 1 66.624 0V828.288z m888.704 0h-211.136a33.344 33.344 0 0 0 0 66.688h244.48c9.152 0 17.472-3.776 23.488-9.792a32.832 32.832 0 0 0 9.792-23.488v-244.48a33.408 33.408 0 0 0-66.624 0V828.288zM67.712-60.352h211.136a33.408 33.408 0 0 0 0-66.688H34.368a33.152 33.152 0 0 0-23.488 9.792 32.832 32.832 0 0 0-9.792 23.488v244.48a33.408 33.408 0 0 0 66.624 0v-211.072z m888.704 0h-211.136a33.344 33.344 0 0 1 0-66.688h244.48a33.152 33.152 0 0 1 23.488 9.792 32.832 32.832 0 0 1 9.792 23.488v244.48a33.408 33.408 0 0 1-66.624 0v-211.072z"  horiz-adv-x="1024" />

    
    <glyph glyph-name="eas" unicode="&#58888;" d="M263.129114 310.515287h118.851801v43.173515H263.129114v90.235638h140.488413v42.774684H211.978968v-324.150341h196.424537v43.173515H263.129114zM598.646154 410.92113c-33.003311 0-57.730867-18.047128-80.165141-39.68374h-1.296203l-3.988315 33.501851h-41.378773v-242.190458h50.252775V334.245764c21.536904 21.536904 36.991626 33.003311 59.4259 33.003311 28.616164 0 40.979942-16.750925 40.979942-58.52853v-146.171762h50.651606V314.902434c0 61.619474-22.932814 96.018695-74.481791 96.018696zM904.250828 799.383057h-671.03408c-65.009542 0-118.153846-53.144304-118.153846-118.153846v-25.824342C52.246933 652.912171 1.495618 600.764946 1.495618 537.35073v-423.75852c0-65.009542 53.144304-118.153846 118.153846-118.153846H758.278481c65.009542 0 118.153846 53.144304 118.153846 118.153846v35.795132h27.818501c65.009542 0 118.153846 53.144304 118.153846 118.153846V681.229211c0 64.909834-53.144304 118.153846-118.153846 118.153846z m-522.269913-445.694255v-43.173515H263.129114v-104.792989h145.374099v-43.173515h-196.424537V486.699124h191.538851v-42.674976H263.129114v-90.335346h118.851801z m291.14703-191.140019h-50.651606V308.720545c0 41.877313-12.363778 58.52853-40.979942 58.52853-22.434275 0-37.888997-11.466407-59.4259-33.003311v-171.796689h-50.252775v242.290166h41.378773l3.988315-33.501851h1.296203c22.434275 21.536904 47.161831 39.683739 80.165141 39.68374 51.548978 0 74.382084-34.399221 74.382084-96.018696l0.099707-152.353651z m305.405259 104.892697c0-19.742162-7.777215-38.287829-21.836028-52.446349-14.058812-14.058812-32.704187-21.836027-52.446348-21.836027h-27.818501V537.251022c0 65.009542-53.144304 118.153846-118.153846 118.153847H158.934372v25.724634c0 19.742162 7.777215 38.287829 21.836027 52.446349 14.058812 14.058812 32.704187 21.836027 52.446349 21.836027h671.03408c19.742162 0 38.287829-7.777215 52.446348-21.836027 14.058812-14.058812 21.836027-32.704187 21.836028-52.446349v-413.688023z"  horiz-adv-x="1024" />

    
    <glyph glyph-name="yuyanqiehuan" unicode="&#58930;" d="M904.192 799.232h-670.72c-65.024 0-118.272-53.248-118.272-118.272v-25.6c-62.976-2.56-113.664-54.784-113.664-117.76v-423.936c0-65.024 53.248-118.272 118.272-118.272h638.464c65.024 0 118.272 53.248 118.272 118.272v35.84h27.648c65.024 0 118.272 53.248 118.272 118.272v413.696c0 64.512-53.248 117.76-118.272 117.76z m-591.36-596.48c47.616 0 68.608 27.136 80.384 57.344h40.96c-13.824-52.224-52.736-91.648-122.88-91.648-92.672 0-139.264 70.144-139.264 157.696 0 83.968 46.592 159.744 140.8 159.744 72.704 0 112.64-41.472 121.344-93.184h-40.96c-11.264 33.792-33.28 58.88-82.432 58.88-68.096 0-95.744-61.952-95.744-124.416 0-60.416 26.112-124.416 97.792-124.416z m353.792-30.208h-38.912V312.32c0 33.792-13.312 56.832-47.616 56.832-42.496 0-59.392-32.256-59.392-77.824v-119.296h-38.912v168.448c0 19.456 0 39.424-0.512 56.832h37.888c1.024-6.656 1.536-30.208 1.536-36.864 9.216 19.456 27.136 42.496 70.656 42.496 41.984 0 75.264-25.6 75.264-85.504v-144.896z m311.808 94.72c0-19.968-7.68-38.4-22.016-52.224-13.824-13.824-32.768-22.016-52.224-22.016h-27.648v344.064c0 65.024-53.248 118.272-118.272 118.272H158.72v25.6c0 19.968 7.68 38.4 22.016 52.224 13.824 13.824 32.768 22.016 52.224 22.016h671.232c19.968 0 38.4-7.68 52.224-22.016 13.824-13.824 22.016-32.768 22.016-52.224v-413.696z"  horiz-adv-x="1024" />

    
    <glyph glyph-name="git" unicode="&#58954;" d="M0 375.114c0 69.368 13.51 135.697 40.498 199.02 26.987 63.323 63.322 117.826 109.006 163.51 45.65 45.65 100.154 81.985 163.51 109.006A502.289 502.289 0 0 0 512 887.08c69.335 0 135.663-13.477 198.986-40.497 63.356-26.988 117.86-63.323 163.51-109.007 45.684-45.65 82.02-100.154 109.006-163.51A502.289 502.289 0 0 0 1024 375.148c0-111.318-32.504-211.472-97.511-300.494-64.975-88.989-148.48-150.825-250.484-185.476-5.351 0-9.348 0.99-11.99 2.973-2.676 1.982-4.196 3.997-4.526 6.012a59.458 59.458 0 0 0-0.495 8.984 7.663 7.663 0 0 0-0.991 3.006v128.99c0 40.63-14.336 75.314-43.008 103.986 76.667 13.345 134.011 41.819 171.999 85.487 37.987 43.669 57.013 96.52 57.013 158.522 0 58.005-18.663 108.346-56.022 150.99 13.345 42.678 11 87.668-6.97 135.003-18.697 1.322-39.011-1.85-61.01-9.513-22-7.663-38.318-14.831-49.02-21.47-10.637-6.673-20.316-13.016-28.97-19.027-38.68 10.669-81.854 16.02-129.486 16.02-47.7 0-90.509-5.351-128.529-16.02-7.333 5.35-15.855 11.164-25.5 17.507-9.68 6.342-26.493 14.005-50.507 22.99-23.982 9.018-45.65 12.85-65.008 11.495-18.663-47.996-20.645-93.646-5.979-136.984-36.665-42.678-54.998-92.986-54.998-150.99 0-62.002 18.663-114.689 55.99-157.994 37.326-43.339 94.67-72.01 171.998-86.016a142.303 142.303 0 0 1-39.969-70.029c-56.683-13.972-96.355-3.963-119.015 30.06-42.017 61.308-79.674 83.307-113.003 65.965-4.69-4.657-3.997-9.48 1.982-14.501 6.012-4.988 14.996-11.66 27.02-19.985 11.99-8.357 20.976-17.507 26.987-27.515 0.661-1.322 2.51-6.177 5.517-14.502a831.917 831.917 0 0 1 8.985-23.981c2.973-7.663 8.654-16.186 17.011-25.5 8.324-9.349 18.003-17.178 29.003-23.52 11-6.309 26.161-11 45.485-14.006 19.324-2.972 41.323-3.138 65.998-0.495v-100.484c0-0.991-0.165-2.643-0.495-5.021-0.33-2.312-0.991-3.964-1.982-4.955-0.991-1.024-2.345-2.015-4.03-3.039a12.52 12.52 0 0 0-6.474-1.486c-2.676 0-6.012 0.33-10.009 0.99-101.343 35.345-183.825 97.182-247.51 185.51C31.842 164.963 0 264.423 0 375.08z"  horiz-adv-x="1024" />

    
    <glyph glyph-name="menu" unicode="&#59381;" d="M904 736H120c-4.4 0-8-3.6-8-8v-64c0-4.4 3.6-8 8-8h784c4.4 0 8 3.6 8 8v64c0 4.4-3.6 8-8 8zM904 112H120c-4.4 0-8-3.6-8-8v-64c0-4.4 3.6-8 8-8h784c4.4 0 8 3.6 8 8v64c0 4.4-3.6 8-8 8zM904 424H120c-4.4 0-8-3.6-8-8v-64c0-4.4 3.6-8 8-8h784c4.4 0 8 3.6 8 8v64c0 4.4-3.6 8-8 8z"  horiz-adv-x="1024" />

    
    <glyph glyph-name="home" unicode="&#58902;" d="M795.621053-109.40631599999995h-117.490527c-64.269474 0-116.547368 51.604211-116.547368 114.930527V187.01473699999997h-103.612632v-181.490526c0-63.461053-51.604211-114.930526-114.930526-114.930527h-115.738947c-63.461053 0-114.930526 51.604211-114.930527 114.930527V342.231579h-20.210526c-30.854737 0-58.745263 18.189474-71.006316 46.48421-12.261053 28.294737-6.736842 61.170526 14.282105 83.806316l0.538948 0.673684 0.673684 0.538948L457.431579 856.791579c12.261053 12.8 32.202105 20.48 53.490526 20.614737 22.501053 0.134737 43.250526-8.084211 56.993684-22.366316l413.642106-375.915789c16.976842-13.069474 27.890526-36.378947 27.890526-59.688422 0-20.48-8.488421-40.690526-23.174737-55.107368-14.821053-14.282105-34.492632-22.096842-55.646316-22.096842h-19.536842v-336.707368c0-63.326316-51.738947-114.930526-115.469473-114.930527z m-347.486316 336.842105H571.284211c16.976842 0 30.72-13.743158 30.72-30.72v-191.191578c0-41.094737 34.088421-74.509474 76.126315-74.509474h117.490527c41.498947 0 75.183158 33.414737 75.183158 74.509474V382.65263200000004h59.957894c10.509474 0 20.210526 3.772632 27.216842 10.64421 7.006316 6.871579 11.048421 16.437895 11.048421 26.273684 0 12.8-6.332632 23.309474-12.395789 27.75579l-0.808421 0.538947-0.808421 0.673684L539.486316 826.206316l-0.538948 0.673684c-5.928421 6.332632-16.303158 10.105263-27.621052 10.105263h-0.269474c-10.374737 0-19.941053-3.233684-24.522105-8.218947l-0.673684-0.673684-0.673685-0.673685L64.538947 444.362105c-9.566316-10.778947-12.126316-26.273684-6.332631-39.477894 5.928421-13.473684 19.267368-22.231579 33.953684-22.231579h60.631579l-0.134737-377.128421c0-41.094737 33.414737-74.509474 74.509474-74.509474h115.738947c41.094737 0 74.509474 33.414737 74.509474 74.509474V196.71578899999997c0 16.976842 13.877895 30.72 30.72 30.72z"  horiz-adv-x="1024" />

    
    <glyph glyph-name="mm" unicode="&#58904;" d="M405.444087-101.42675499999996H115.26425c-47.300376 0-85.831582 38.531205-85.831582 85.831582V274.584663c0 47.300376 38.531205 85.831582 85.831582 85.831582h290.179837c47.300376 0 85.831582-38.531205 85.831581-85.831582v-290.179836c-0.132866-47.300376-38.531205-85.831582-85.831581-85.831582zM115.26425 307.26975500000003c-18.069807 0-32.685091-14.615285-32.685091-32.685092v-290.179836c0-18.069807 14.615285-32.685091 32.685091-32.685092h290.179837c18.069807 0 32.685091 14.615285 32.685091 32.685092V274.584663c0 18.069807-14.615285 32.685091-32.685091 32.685092H115.26425zM405.444087 389.646815H115.26425c-47.300376 0-85.831582 38.531205-85.831582 85.831581V765.658233c0 47.300376 38.531205 85.831582 85.831582 85.831581h290.179837c47.300376 0 85.831582-38.531205 85.831581-85.831581v-290.179837c-0.132866-47.300376-38.531205-85.831582-85.831581-85.831581zM115.26425 798.3433239999999c-18.069807 0-32.685091-14.615285-32.685091-32.685091v-290.179837c0-18.069807 14.615285-32.685091 32.685091-32.685091h290.179837c18.069807 0 32.685091 14.615285 32.685091 32.685091V765.658233c0 18.069807-14.615285 32.685091-32.685091 32.685091H115.26425zM892.930268-101.42675499999996H602.750431c-47.300376 0-85.831582 38.531205-85.831581 85.831582V274.584663c0 47.300376 38.531205 85.831582 85.831581 85.831582H892.930268c47.300376 0 85.831582-38.531205 85.831582-85.831582v-290.179836c0-47.300376-38.531205-85.831582-85.831582-85.831582zM602.750431 307.26975500000003c-18.069807 0-32.685091-14.615285-32.685091-32.685092v-290.179836c0-18.069807 14.615285-32.685091 32.685091-32.685092H892.930268c18.069807 0 32.685091 14.615285 32.685091 32.685092V274.584663c0 18.069807-14.615285 32.685091-32.685091 32.685092H602.750431zM761.658437 402.003374c-19.398469 0-38.929804 7.440509-53.677955 22.188659L536.848784 595.3237320000001c-14.349552 14.349552-22.18866 33.349423-22.18866 53.677955s7.839107 39.328403 22.18866 53.677955L707.847616 873.81134c14.349552 14.349552 33.349423 22.18866 53.677955 22.18866 20.328533 0 39.328403-7.839107 53.677955-22.18866l170.998832-170.998832c29.629168-29.629168 29.629168-77.859608 0-107.488776L815.336392 424.192033c-14.881017-14.748151-34.279486-22.18866-53.677955-22.188659z m-16.209679 59.789801c8.902037-8.902037 23.384456-8.902037 32.286492 0L948.734083 632.792007c8.902037 8.902037 8.902037 23.384456 0 32.286493L777.73525 836.210199c-4.251719 4.251719-9.964967 6.643311-16.076813 6.643311s-11.825094-2.391592-16.209679-6.643311L574.449925 665.0785c-4.251719-4.251719-6.643311-9.964967-6.643311-16.076813s2.391592-11.825094 6.643311-16.076814L745.448758 461.793175z"  horiz-adv-x="1075" />

    
    <glyph glyph-name="erm" unicode="&#58905;" d="M289.414737-72.75789499999996c-9.835789 0-19.671579 2.155789-28.833684 6.467369-20.884211 9.431579-34.762105 30.315789-35.301053 53.221052v2.021053l9.566316 73.701053h-76.530527c-110.753684 0-134.063158 68.176842-134.063157 125.305263V667.082105c0 41.229474 12.261053 73.296842 36.378947 95.124211 23.444211 21.288421 57.667368 32.067368 101.726316 32.067368l700.496842-0.943158c46.618947 0 82.189474-12.126316 105.633684-36.109473 21.423158-21.962105 31.932632-52.547368 31.124211-91.082106v-478.450526c0.808421-39.477895-9.296842-70.332632-30.181053-91.621053-22.501053-23.04-56.050526-34.223158-102.534737-34.223157l-336.842105 0.943157L323.637895-63.32631600000002c-10.509474-6.332632-22.366316-9.431579-34.223158-9.431579z m-9.970526 59.688421c0.404211-1.751579 1.616842-3.368421 3.368421-4.176842l0.808421-0.40421c4.042105-1.886316 8.623158-1.751579 12.530526 0.40421l218.947368 133.658948 352.067369-0.943158c30.585263 0 52.143158 6.063158 63.865263 18.054737 10.509474 10.644211 15.36 28.025263 14.821053 52.951578V666.947368c0.538947 23.578947-4.715789 41.364211-15.764211 52.547369-12.934737 13.204211-35.570526 19.941053-67.098947 19.941052l-700.496842 0.943158c-74.105263 0-84.210526-35.166316-84.210527-73.296842v-478.989473c0-25.734737 5.658947-43.52 17.51579-54.433685 12.261053-11.317895 33.414737-16.976842 62.652631-16.976842h137.83579l-16.842105-129.751579zM746.981053 529.515789H276.884211c-14.821053 0-26.947368 12.126316-26.947369 26.947369s12.126316 26.947368 26.947369 26.947368h470.096842c14.821053 0 26.947368-12.126316 26.947368-26.947368s-11.991579-26.947368-26.947368-26.947369zM590.282105 320.673684H276.884211c-14.821053 0-26.947368 12.126316-26.947369 26.947369s12.126316 26.947368 26.947369 26.947368h313.397894c14.821053 0 26.947368-12.126316 26.947369-26.947368s-11.991579-26.947368-26.947369-26.947369z"  horiz-adv-x="1024" />

    
    <glyph glyph-name="mms" unicode="&#58907;" d="M665.869474 665.6H256.134737c-14.821053 0-26.947368-12.126316-26.947369-26.947368s12.126316-26.947368 26.947369-26.947369h409.869474c14.821053 0 26.947368 12.126316 26.947368 26.947369s-12.126316 26.947368-27.082105 26.947368zM665.869474 460.8H256.134737c-14.821053 0-26.947368-12.126316-26.947369-26.947368s12.126316-26.947368 26.947369-26.947369h409.869474c14.821053 0 26.947368 12.126316 26.947368 26.947369s-12.126316 26.947368-27.082105 26.947368zM461.069474 256H256.134737c-14.821053 0-26.947368-12.126316-26.947369-26.947368s12.126316-26.947368 26.947369-26.947369h204.934737c14.821053 0 26.947368 12.126316 26.947368 26.947369s-12.126316 26.947368-26.947368 26.947368zM846.551579 662.501053v56.589473C846.551579 803.301053 777.970526 871.747368 693.625263 871.747368H228.378947C144.033684 871.747368 75.452632 803.301053 75.452632 719.090526v-670.181052c0-79.090526 60.496842-144.303158 137.701052-151.983158v-0.808421h597.153684C886.568421-103.74736800000005 948.547368-41.76842099999999 948.547368 34.49263199999996V529.111579c0 63.730526-43.250526 117.490526-101.995789 133.389474zM894.652632 34.49263199999996c0-46.484211-37.861053-84.345263-84.345264-84.345264H225.414737c-53.221053 1.616842-96.067368 45.271579-96.067369 98.762106V719.090526c0 54.568421 44.463158 98.896842 99.031579 98.896842h465.381053c54.568421 0 99.031579-44.328421 99.031579-98.896842v-488.96c0-14.821053 12.126316-26.947368 26.947368-26.947368s26.947368 11.991579 26.947369 26.947368V605.237895c28.429474-13.608421 48.101053-42.576842 48.101052-76.126316v-494.618947z"  horiz-adv-x="1024" />

    
    <glyph glyph-name="mcs" unicode="&#58908;" d="M825.263158 233.22947399999998l-3.907369-10.24C782.821053 118.97263199999998 695.646316 40.82526299999995 587.452632 15.360000000000014l-7.949474-1.751579-4.581053 6.197895c-15.225263 20.345263-39.073684 31.663158-63.461052 31.663158-9.566316 0-19.267368-1.751579-28.294737-5.12-32.875789-13.069474-53.221053-46.484211-49.852632-81.51579 3.907368-35.031579 31.124211-64 66.290527-69.12 35.166316-5.658947 69.658947 13.069474 83.806315 45.810527l2.290527 5.658947 6.197894 1.077895c144.303158 30.046316 259.772632 136.488421 300.597895 278.501052l2.290526 8.488421-69.52421-2.021052z m0 0M912.976842 527.090526l-8.488421 1.077895-1.751579 8.488421C871.073684 728.656842 706.964211 868.378947 511.595789 868.378947 316.362105 868.378947 152.252632 729.195789 120.454737 536.656842l-1.751579-7.949474-8.488421-1.077894c-49.852632-7.949474-86.096842-49.852632-86.096842-100.244211V336.84210499999995c0-56.050526 45.271579-101.322105 101.322105-101.322105h67.907368c18.054737 0 33.414737 14.686316 33.414737 33.414737V495.427368c0 16.437895-11.856842 30.046316-27.755789 32.87579l-12.39579 2.290526 2.829474 12.39579c15.898947 72.488421 56.050526 138.644211 113.852632 185.667368 58.88 48.101053 132.446316 74.105263 208.303157 74.105263s149.962105-26.543158 208.303158-74.105263c57.802105-47.023158 98.492632-113.178947 113.717895-185.667368l2.829474-12.39579-12.39579-2.290526c-16.437895-2.829474-27.755789-16.437895-27.755789-32.87579v-227.031579c0-13.069474 7.410526-24.926316 19.267368-30.046315l10.24-4.581053 69.658948 1.077895 8.488421 0.538947c53.221053 3.368421 95.124211 47.562105 95.12421 101.322105v90.004211c-0.538947 50.526316-36.244211 92.968421-86.096842 100.378947zM161.818947 297.768421H125.574737c-19.806316 0-36.244211 16.437895-36.244211 36.244211v95.12421c0 19.806316 16.437895 36.244211 36.244211 36.244211h36.24421V297.768421z m776.084211 30.585263c0-22.635789-18.054737-40.825263-40.825263-40.825263h-40.690527V475.621053h40.690527c22.635789 0 40.825263-18.054737 40.825263-40.825264v-106.442105z m0 0"  horiz-adv-x="1024" />

    
    <glyph glyph-name="cm" unicode="&#58909;" d="M794.947368 432.505263c0 156.025263-126.922105 282.947368-282.947368 282.947369s-282.947368-126.922105-282.947368-282.947369c0-78.821053 32.741053-153.330526 89.465263-206.416842L342.231579 278.905263c-37.726316 41.633684-59.149474 96.202105-59.149474 153.6 0 126.248421 102.804211 229.052632 229.052632 229.052632s229.052632-102.804211 229.052631-229.052632c0-60.227368-23.713684-117.355789-64.943157-159.663158l24.522105-51.065263C760.32 275.13263199999994 794.947368 351.528421 794.947368 432.505263zM818.795789 739.301053C736.875789 821.221053 627.873684 866.357895 512 866.357895s-224.875789-45.136842-306.795789-127.056842S78.147368 548.3789469999999 78.147368 432.505263c0-68.985263 16.572632-137.701053 48.101053-198.602105 30.450526-58.88 74.778947-111.023158 128.269474-150.501053l22.635789 50.391579C186.071579 205.60842100000002 132.042105 316.36210500000004 132.042105 432.505263 132.042105 642.0210529999999 302.484211 812.463158 512 812.463158s379.957895-170.442105 379.957895-379.957895c0-117.625263-55.107368-229.052632-147.941053-300.867368l23.848421-49.448421c53.490526 39.208421 97.953684 90.812632 128.673684 149.423158 32.336842 61.44 49.313684 130.964211 49.313685 200.892631 0 115.873684-45.136842 224.875789-127.056843 306.79579zM554.981053 356.24421099999995c26.543158 15.090526 44.597895 43.52 44.597894 76.261052 0 48.235789-39.343158 87.578947-87.578947 87.578948s-87.578947-39.343158-87.578947-87.578948c0-28.698947 13.877895-54.164211 35.301052-70.197895L286.046316-25.600000000000023c-6.332632-14.147368-5.12-30.450526 3.368421-43.385263 8.488421-13.069474 22.770526-20.749474 38.265263-20.749474h368.64c15.764211 0 30.181053 7.949474 38.669474 21.288421 8.353684 13.338947 9.296842 29.776842 2.56 44.058948L554.981053 356.24421099999995zM512 466.189474c18.593684 0 33.684211-15.090526 33.684211-33.684211s-15.090526-33.684211-33.684211-33.68421h-1.482105c-0.808421 0.134737-1.482105 0.134737-2.290527 0.134736-16.842105 1.886316-29.911579 16.168421-29.911579 33.414737 0 18.728421 15.090526 33.818947 33.684211 33.818948zM340.48-35.974737000000005l165.591579 369.717895L683.115789-35.974737000000005H340.48z"  horiz-adv-x="1024" />

    
    <glyph glyph-name="statistics" unicode="&#58910;" d="M530.593684 112.63999999999999c0 14.821053-12.126316 26.947368-26.947368 26.947368H88.926316c-2.829474 0-5.524211 1.077895-7.545263 3.098948-2.021053 2.021053-3.098947 4.850526-3.098948 7.68V754.526316c0 2.829474 1.077895 5.658947 3.098948 7.68 2.021053 2.021053 4.715789 3.098947 7.545263 3.098947h810.711579c2.829474 0 5.658947-1.212632 7.545263-3.098947 2.021053-2.021053 3.098947-4.715789 3.098947-7.68v-264.218948c0-14.821053 12.126316-26.947368 26.947369-26.947368s26.947368 12.126316 26.947368 26.947368V754.526316c0 17.246316-6.736842 33.549474-18.863158 45.675789C933.052632 812.463158 916.884211 819.2 899.637895 819.2H88.926316c-17.246316 0-33.549474-6.736842-45.810527-18.997895-12.126316-12.126316-18.863158-28.429474-18.863157-45.675789v-604.025263c0-17.246316 6.736842-33.549474 18.863157-45.67579 12.261053-12.261053 28.429474-18.997895 45.67579-18.997895h414.72c15.090526-0.134737 27.082105 11.991579 27.082105 26.812632zM625.987368 618.4421050000001c0 14.821053-12.126316 26.947368-26.947368 26.947369H160.741053c-14.821053 0-26.947368-12.126316-26.947369-26.947369s12.126316-26.947368 26.947369-26.947368h438.298947c14.821053 0 26.947368 12.126316 26.947368 26.947368zM936.690526 18.863158H160.741053c-14.821053 0-26.947368-12.126316-26.947369-26.947369s12.126316-26.947368 26.947369-26.947368h775.814736c14.821053 0 26.947368 12.126316 26.947369 26.947368s-11.991579 26.947368-26.812632 26.947369zM992.067368 80.70736799999997L853.018947 220.025263c29.103158 33.549474 46.753684 77.473684 46.753685 125.305263 0 105.633684-85.827368 191.461053-191.326316 191.461053s-191.326316-85.962105-191.326316-191.461053c0-105.633684 85.827368-191.461053 191.326316-191.461052 38.265263 0 73.835789 11.317895 103.747368 30.72L953.936842 42.71157900000003c5.254737-5.254737 12.126316-7.949474 19.132632-7.949474 6.871579 0 13.743158 2.56 18.997894 7.814737 10.509474 10.644211 10.509474 27.621053 0 38.130526zM571.149474 345.33052599999996c0 75.856842 61.574737 137.566316 137.431579 137.566316s137.431579-61.709474 137.431579-137.566316-61.574737-137.566316-137.431579-137.566315-137.431579 61.709474-137.431579 137.566315zM461.608421 454.063158c0 14.821053-12.126316 26.947368-26.947368 26.947368H160.741053c-14.821053 0-26.947368-12.126316-26.947369-26.947368s12.126316-26.947368 26.947369-26.947369h273.92c14.821053 0 26.947368 12.126316 26.947368 26.947369zM160.741053 316.631579c-14.821053 0-26.947368-12.126316-26.947369-26.947368s12.126316-26.947368 26.947369-26.947369h219.082105c14.821053 0 26.947368 12.126316 26.947368 26.947369s-12.126316 26.947368-26.947368 26.947368H160.741053z"  horiz-adv-x="1024" />

    
    <glyph glyph-name="contacts" unicode="&#58911;" d="M906.105263 872.016842H213.423158c-48.64 0-88.117895-39.612632-88.252632-88.252631V687.157895c0-14.821053 12.126316-26.947368 26.947369-26.947369s26.947368 12.126316 26.947368 26.947369V783.629474c0 18.997895 15.36 34.492632 34.357895 34.492631h692.682105c18.863158 0 34.357895-15.494737 34.357895-34.357894v-799.124211c0-18.997895-15.494737-34.492632-34.357895-34.492632H213.423158c-18.863158 0-34.357895 15.494737-34.357895 34.357895v96.606316c0 14.821053-12.126316 26.947368-26.947368 26.947368s-26.947368-12.126316-26.947369-26.947368v-96.741053c0-48.64 39.612632-88.252632 88.252632-88.252631h692.816842c48.64 0 88.117895 39.612632 88.252632 88.252631V783.764211c-0.134737 48.64-39.747368 88.252632-88.387369 88.252631zM262.871579 47.966316000000006c0-14.821053 12.126316-26.947368 26.947368-26.947369s26.947368 12.126316 26.947369 26.947369c0 132.581053 107.654737 240.505263 240.101052 240.505263S796.968421 180.547368 796.968421 47.966316000000006c0-14.821053 12.126316-26.947368 26.947368-26.947369s26.947368 12.126316 26.947369 26.947369c0 78.686316-30.585263 152.522105-86.096842 208.168421-31.663158 31.663158-69.254737 55.242105-110.214737 69.658947 48.505263 31.932632 80.707368 86.905263 80.707368 149.288421 0 98.492632-80.033684 178.526316-178.391579 178.526316s-178.391579-80.168421-178.391579-178.526316c0-62.383158 32.202105-117.355789 80.707369-149.288421-40.96-14.416842-78.551579-37.995789-110.214737-69.658947-55.511579-55.511579-86.096842-129.482105-86.096842-208.168421z m293.995789 551.882105c68.581053 0 124.496842-55.915789 124.496843-124.631579s-55.781053-124.631579-124.496843-124.631579c-68.581053 0-124.496842 55.915789-124.496842 124.631579s55.781053 124.631579 124.496842 124.631579zM53.894737 540.429474h177.987368c14.821053 0 26.947368 12.126316 26.947369 26.947368s-12.126316 26.947368-26.947369 26.947369H53.894737c-14.821053 0-26.947368-12.126316-26.947369-26.947369s12.126316-26.947368 26.947369-26.947368zM53.894737 362.172632h177.987368c14.821053 0 26.947368 12.126316 26.947369 26.947368s-12.126316 26.947368-26.947369 26.947368H53.894737c-14.821053 0-26.947368-12.126316-26.947369-26.947368s12.126316-26.947368 26.947369-26.947368zM258.829474 210.72842100000003c0 14.821053-12.126316 26.947368-26.947369 26.947368H53.894737c-14.821053 0-26.947368-12.126316-26.947369-26.947368s12.126316-26.947368 26.947369-26.947368h177.987368c14.955789 0 26.947368 12.126316 26.947369 26.947368z"  horiz-adv-x="1024" />

    
    <glyph glyph-name="system" unicode="&#58912;" d="M974.012632 479.797895c-16.842105 16.842105-39.208421 26.138947-62.922106 26.138947h-32.741052l-20.884211 50.391579 23.174737 23.04c16.842105 16.842105 26.004211 39.343158 26.004211 63.056842 0 23.713684-9.296842 46.08-26.004211 62.652632l-47.023158 46.888421c-16.168421 16.168421-39.073684 25.465263-62.922105 25.465263-23.713684 0-46.618947-9.296842-62.787369-25.465263L684.867368 728.926316l-50.526315 20.614737V782.686316c0 49.044211-39.882105 88.791579-88.926316 88.791579h-66.425263c-49.044211 0-88.926316-39.882105-88.926316-88.791579v-32.741053L339.536842 729.195789l-22.905263 22.905264c-16.168421 16.168421-39.073684 25.6-62.922105 25.6-23.713684 0-46.618947-9.296842-62.787369-25.465264l-47.023158-47.023157c-16.842105-16.707368-26.004211-39.073684-26.00421-62.922106 0-23.848421 9.296842-46.08 26.00421-62.787368l23.04-23.04-20.749473-50.526316H113.448421c-49.044211 0-88.926316-39.882105-88.926316-88.926316v-66.425263c0-49.044211 39.882105-88.926316 88.926316-88.926316h32.606316l21.018947-50.526315-23.309473-23.174737c-34.492632-34.762105-34.357895-91.082105 0.134736-125.574737l47.023158-46.888421c16.168421-16.303158 39.073684-25.6 62.922106-25.6 23.848421 0 46.753684 9.296842 62.787368 25.465263l22.905263 22.905263 50.526316-20.614737V-14.821053c0-49.044211 39.882105-88.926316 88.926316-88.926315h66.425263c49.044211 0 88.926316 39.882105 88.926316 88.926315v32.471579l50.661052 20.749474 22.905263-22.905263c16.168421-16.168421 39.073684-25.465263 62.922106-25.465263 23.848421 0 46.753684 9.296842 62.787368 25.465263l47.023158 47.023158c16.842105 16.707368 26.004211 39.073684 26.004211 62.922105 0 23.713684-9.296842 46.08-26.138948 62.922105l-22.905263 22.905263 20.614737 50.526316h32.741052c48.909474 0 88.791579 39.882105 88.791579 88.926316v66.155789c0.134737 23.713684-9.027368 45.945263-25.734736 62.922106zM945.852632 350.585263c0-19.267368-15.629474-35.031579-34.896843-35.031579h-39.882105c-16.707368 0-35.031579-13.204211-40.96-28.968421L807.073684 230.130526c-8.218947-17.381053-5.389474-39.343158 7.006316-51.738947l28.294737-28.16c6.602105-6.602105 10.24-15.36 10.24-24.791579 0-9.431579-3.637895-18.189474-10.24-24.791579l-47.157895-47.023158c-6.063158-6.063158-15.090526-9.701053-24.656842-9.701052-9.431579 0-18.728421 3.637895-24.791579 9.701052l-28.294737 28.429474c-7.410526 7.410526-19.267368 11.856842-31.797895 11.856842-7.141053 0-13.473684-1.482105-18.728421-4.311579-0.134737 0-0.134737-0.134737-0.269473-0.134737l-55.107369-22.635789c-17.650526-6.332632-31.393684-24.387368-31.393684-41.768421V-14.821053c0-19.267368-15.629474-35.031579-35.031579-35.031579h-66.425263c-19.267368 0-35.031579 15.629474-35.031579 35.031579v39.747369c0 17.111579-12.934737 35.031579-29.103158 40.96l-57.397895 23.44421c-5.389474 2.964211-11.856842 4.446316-18.997894 4.446316-12.395789 0-24.252632-4.446316-31.663158-11.722105l-28.429474-28.429474c-6.063158-6.063158-15.225263-9.701053-24.656842-9.701052-9.566316 0-18.593684 3.503158-24.791579 9.701052l-47.023158 46.888421c-13.608421 13.608421-13.608421 35.84-0.134737 49.448421l28.294737 28.294737c11.856842 11.722105 15.494737 33.818947 8.353684 49.178947l-23.578947 56.724211c-6.467368 17.92-24.117895 31.393684-41.903158 31.393684H113.448421c-19.267368 0-35.031579 15.629474-35.031579 35.031579v66.425263c0 19.267368 15.764211 35.031579 35.031579 35.031579h39.882105c16.707368 0 35.031579 13.069474 40.96 28.968421l23.578948 57.397895 0.134737 0.269474c8.353684 15.494737 4.850526 38.130526-7.545264 50.661052l-28.294736 28.294737c-6.602105 6.467368-10.105263 15.225263-10.105264 24.656842s3.637895 18.189474 10.24 24.791579L229.052632 714.105263c6.063158 6.063158 15.090526 9.566316 24.656842 9.566316 9.566316 0 18.593684-3.503158 24.791579-9.701053l28.294736-28.16 0.134737-0.134737c11.856842-11.722105 35.84-15.225263 50.526316-7.410526 0.134737 0 0.269474 0.134737 0.404211 0.134737l54.837894 22.501053c17.92 6.332632 31.393684 24.117895 31.393685 41.903158V782.686316c0 19.267368 15.764211 34.896842 35.031579 34.896842h66.425263c19.267368 0 35.031579-15.629474 35.031579-34.896842v-39.882105c0-16.707368 13.069474-35.031579 28.968421-40.96l57.128421-23.444211c0.134737-0.134737 0.404211-0.134737 0.538947-0.269474 5.389474-2.829474 11.587368-4.311579 18.728421-4.311579 12.530526 0 24.387368 4.446316 31.797895 11.856842l28.429474 28.294737c6.063158 6.063158 15.225263 9.701053 24.656842 9.701053 9.566316 0 18.593684-3.503158 24.791579-9.701053l47.023158-47.023158c6.602105-6.467368 10.24-15.225263 10.24-24.656842s-3.637895-18.189474-10.24-24.791579l-28.294737-28.294736c-11.991579-11.991579-15.494737-33.684211-8.218948-49.178948l23.444211-56.72421c6.467368-17.92 24.117895-31.393684 41.768421-31.393685h40.016842c9.296842 0 18.054737-3.637895 24.656842-10.374736 6.602105-6.602105 10.105263-15.36 10.105263-24.656843v-66.290526zM512.269474 548.244211c-90.677895 0-164.513684-73.701053-164.513685-164.378948s73.835789-164.378947 164.513685-164.378947 164.378947 73.701053 164.378947 164.378947-73.701053 164.378947-164.378947 164.378948z m0-274.863158c-60.901053 0-110.618947 49.583158-110.618948 110.48421s49.583158 110.484211 110.618948 110.484211c60.901053 0 110.484211-49.583158 110.48421-110.484211s-49.583158-110.484211-110.48421-110.48421z"  horiz-adv-x="1024" />

    
    <glyph glyph-name="template" unicode="&#58916;" d="M780.530526-103.74736800000005H108.732632c-16.168421 0-29.237895 13.204211-29.237895 29.372631v817.852632c0 16.168421 13.069474 29.372632 29.237895 29.372631h671.797894c16.168421 0 29.237895-13.204211 29.237895-29.372631v-817.987369c0-16.033684-13.069474-29.237895-29.237895-29.237894zM133.389474-49.717895h622.48421V718.821053H133.389474v-768.538948zM825.128421 51.33473700000002c-14.821053 0-26.947368 12.126316-26.947368 26.947368s12.126316 26.947368 26.947368 26.947369c30.989474 0 56.050526 22.635789 56.050526 50.526315V767.326316c0 27.890526-25.195789 50.526316-56.050526 50.526316H266.509474c-30.989474 0-56.050526-22.635789-56.050527-50.526316 0-14.821053-12.126316-26.947368-26.947368-26.947369s-26.947368 12.126316-26.947368 26.947369c0 57.532632 49.313684 104.421053 109.945263 104.421052h558.618947c60.631579 0 109.945263-46.888421 109.945263-104.421052v-611.570527c0-57.532632-49.313684-104.421053-109.945263-104.421052zM647.68 504.724211H250.475789c-14.821053 0-26.947368 12.126316-26.947368 26.947368s12.126316 26.947368 26.947368 26.947368h397.338948c14.821053 0 26.947368-12.126316 26.947368-26.947368s-12.126316-26.947368-27.082105-26.947368zM647.68 340.48H250.475789c-14.821053 0-26.947368 12.126316-26.947368 26.947368s12.126316 26.947368 26.947368 26.947369h397.338948c14.821053 0 26.947368-12.126316 26.947368-26.947369s-12.126316-26.947368-27.082105-26.947368zM662.905263 176.10105299999998H250.475789c-14.821053 0-26.947368 12.126316-26.947368 26.947368s12.126316 26.947368 26.947368 26.947368H662.905263c14.821053 0 26.947368-12.126316 26.947369-26.947368s-12.126316-26.947368-26.947369-26.947368z"  horiz-adv-x="1024" />

    
    <glyph glyph-name="draft" unicode="&#58917;" d="M871.073684-103.74736800000005H150.635789c-54.568421 0-99.031579 44.463158-99.031578 99.031579V310.43368399999997h270.012631v-99.031579c0-24.926316 20.210526-45.136842 45.136842-45.136842h288.202105c24.926316 0 45.136842 20.210526 45.136843 45.136842v99.031579H970.105263v-315.149473c0-54.568421-44.463158-99.031579-99.031579-99.031579zM105.498947 256.538947v-261.254736c0-24.926316 20.210526-45.136842 45.136842-45.136843h720.437895c24.926316 0 45.136842 20.210526 45.136842 45.136843V256.538947H753.987368v-45.136842c0-54.568421-44.463158-99.031579-99.031579-99.031579H366.753684c-54.568421 0-99.031579 44.463158-99.031579 99.031579v45.136842H105.498947zM875.385263 304.101053h-53.894737v447.326315c0 36.648421-29.776842 66.290526-66.290526 66.290527H271.090526c-36.648421 0-66.290526-29.776842-66.290526-66.290527v-447.326315h-53.894737v447.326315C150.905263 817.852632 204.8 871.747368 271.090526 871.747368h483.974737c66.290526 0 120.185263-53.894737 120.185263-120.185263v-447.461052zM735.258947 599.578947H333.608421c-14.821053 0-26.947368 12.126316-26.947368 26.947369s12.126316 26.947368 26.947368 26.947368h401.650526c14.821053 0 26.947368-12.126316 26.947369-26.947368s-11.991579-26.947368-26.947369-26.947369zM572.496842 462.147368H333.608421c-14.821053 0-26.947368 12.126316-26.947368 26.947369s12.126316 26.947368 26.947368 26.947368h238.753684c14.821053 0 26.947368-12.126316 26.947369-26.947368s-11.991579-26.947368-26.812632-26.947369zM555.52-103.74736800000005h26.947368"  horiz-adv-x="1024" />

    
    <glyph glyph-name="about" unicode="&#58938;" d="M515.368421-103.747368c-65.886316 0-129.886316 12.934737-190.113684 38.4-58.206316 24.656842-110.349474 59.823158-155.216842 104.690526-44.867368 44.867368-80.033684 97.010526-104.690527 155.216842C39.882105 254.787368 26.947368 318.787368 26.947368 384.673684c0 65.886316 12.934737 129.886316 38.4 190.113684 24.656842 58.206316 59.823158 110.349474 104.690527 155.216843 44.867368 44.867368 97.010526 80.033684 155.216842 104.690526C385.482105 860.16 449.482105 873.094737 515.368421 873.094737c65.886316 0 129.886316-12.934737 190.113684-38.4 58.206316-24.656842 110.349474-59.823158 155.216842-104.690526 44.867368-44.867368 80.033684-97.010526 104.690527-155.216843 25.465263-60.227368 38.4-124.227368 38.4-190.113684 0-65.886316-12.934737-129.886316-38.4-190.113684-24.656842-58.206316-59.823158-110.349474-104.690527-155.216842-44.867368-44.867368-97.010526-80.033684-155.216842-104.690526-60.227368-25.465263-124.227368-38.4-190.113684-38.4z m0 922.408421c-239.292632 0-433.987368-194.694737-433.987368-433.987369 0-239.292632 194.694737-433.987368 433.987368-433.987368 239.292632 0 433.987368 194.694737 433.987368 433.987368 0 239.292632-194.694737 433.987368-433.987368 433.987369zM553.094737 679.882105c32.067368-7.68 47.427368-45.271579 40.286316-77.20421-7.68-32.067368-37.591579-59.014737-69.524211-51.334737-32.067368 7.68-44.193684 44.732632-36.917895 76.665263 7.68 32.067368 34.088421 59.688421 66.15579 51.873684z m-137.431579-236.732631s96.606316 84.48 134.063158 67.907368c25.330526-6.602105 11.587368-120.858947 7.68-136.353684-1.077895-13.743158-23.174737-187.688421-17.650527-195.368421 7.68-28.698947 16.572632-6.063158 43.654737 16.572631 0 0 63.461053 42.981053-4.446315-46.349473-56.32-60.092632-110.888421-52.412632-119.242106-7.141053-6.602105 34.223158 20.48 241.178947 27.082106 287.528421 2.155789 15.494737-17.111579 0-17.111579 0s-52.412632-32.606316-65.077895-10.509474c-3.368421 6.063158 1.616842 15.494737 11.048421 23.713685z m0 0"  horiz-adv-x="1024" />

    
    <glyph glyph-name="mail" unicode="&#58951;" d="M854.905263 41.768421h-691.2C90.543158 41.768421 30.989474 101.322105 30.989474 174.484211v431.157894c0 73.162105 59.553684 132.715789 132.715789 132.71579h691.2c73.162105 0 132.715789-59.553684 132.71579-132.71579v-431.157894c0-73.162105-59.553684-132.715789-132.71579-132.71579z m-691.2 642.694737C120.185263 684.463158 84.884211 649.162105 84.884211 605.642105v-431.157894c0-43.52 35.301053-78.821053 78.821052-78.821053h691.2c43.52 0 78.821053 35.301053 78.821053 78.821053v431.157894c0 43.52-35.301053 78.821053-78.821053 78.821053h-691.2zM514.829474 276.345263h-0.134737c-22.905263 0-44.463158 9.027368-60.631579 25.19579l-369.178947 369.178947 38.130526 38.130526 369.178947-369.178947c6.063158-6.063158 14.147368-9.431579 22.63579-9.431579 8.488421 0 16.437895 3.233684 22.501052 9.296842l370.661053 370.661053 38.130526-38.130527L575.326316 301.406316c-16.168421-16.168421-37.591579-25.061053-60.496842-25.061053z"  horiz-adv-x="1024" />

    
    <glyph glyph-name="wechat" unicode="&#58952;" d="M968.623158 270.551579c0 61.170526-27.216842 120.050526-76.39579 165.861053-48.505263 45.271579-113.448421 73.162105-182.298947 79.090526V518.736842c-28.968421 134.197895-173.002105 235.789474-335.629474 235.789474C189.978947 754.526316 40.421053 626.256842 40.421053 468.614737c0-84.075789 42.576842-160.471579 123.823158-219.890526l-27.890527-84.07579c-2.155789-6.602105 0-13.069474 4.850527-17.515789 4.850526-4.311579 12.530526-4.850526 18.054736-2.15579l105.903158 52.951579 12.530527-2.694737h0.538947c32.741053-6.602105 61.170526-12.530526 96.067368-12.530526 6.602105 0 31.663158 2.155789 39.882106 6.063158 40.421053-98.223158 148.48-164.244211 269.608421-164.244211 30.585263 0 61.709474 7.141053 92.698947 14.686316l81.246316-44.193684c2.155789-1.077895 4.850526-2.155789 7.68-2.15579 3.772632 0 7.68 1.077895 10.374737 3.772632 5.524211 4.311579 7.141053 10.913684 5.52421 17.515789L860.564211 82.189474c69.389474 55.107368 108.058947 122.341053 108.058947 188.362105zM824.050526 109.002105c-5.389474-3.772632-7.68-10.913684-5.389473-16.976842l11.452631-38.80421-49.178947 26.677894c-2.155789 1.077895-4.850526 2.155789-7.68 2.15579-1.077895 0-2.694737 0-3.772632-0.538948-28.429474-7.141053-57.802105-14.686316-86.770526-14.686315-132.581053 0-240.64 91.082105-240.64 203.048421 0 111.831579 108.058947 203.048421 240.64 203.048421 130.425263 0 240.101053-92.833684 240.101053-203.048421 0.538947-55.511579-34.357895-112.909474-98.762106-160.87579zM205.204211 256.808421c2.155789 6.602105 0 13.608421-6.063158 18.054737-76.395789 53.490526-115.2 118.433684-115.2 193.212631 0 134.736842 129.886316 244.412632 289.818947 244.412632 139.722105 0 264.623158-85.153684 291.974737-198.063158-149.018947-3.233684-269.608421-109.136842-269.608421-237.406316 0-16.976842 2.155789-34.357895 7.141052-51.873684h-2.155789c-8.757895-0.538947-18.054737-1.077895-27.216842-1.077895-31.124211 0-57.802105 5.389474-86.770526 11.452632l-17.51579 3.233684c-3.233684 0.538947-7.141053 0-10.374737-1.077895l-72.623158-36.513684 18.593685 55.646316z m0 0M274.324211 563.604211m-43.250527 0a43.250526 43.250526 0 1 1 86.501053 0 43.250526 43.250526 0 1 1-86.501053 0ZM479.124211 563.604211m-43.250527 0a43.250526 43.250526 0 1 1 86.501053 0 43.250526 43.250526 0 1 1-86.501053 0ZM601.195789 341.153684m-34.088421 0a34.088421 34.088421 0 1 1 68.176843 0 34.088421 34.088421 0 1 1-68.176843 0ZM782.416842 311.376842m-34.088421 0a34.088421 34.088421 0 1 1 68.176842 0 34.088421 34.088421 0 1 1-68.176842 0Z"  horiz-adv-x="1024" />

    
    <glyph glyph-name="new" unicode="&#58953;" d="M518.736842-87.578947c-107.385263 0-194.829474 87.309474-194.829474 194.829473h53.894737c0-77.743158 63.191579-140.934737 140.934737-140.934737 77.743158 0 140.934737 63.191579 140.934737 140.934737h53.894737c0-107.385263-87.444211-194.829474-194.829474-194.829473zM920.252632 74.778947H106.576842c-26.408421 0.134737-50.391579 15.764211-61.305263 39.477895l-0.269474 0.269474-0.808421 2.155789c-0.269474 0.538947-0.538947 1.212632-0.673684 1.751579l-1.751579 4.581053v0.943158c-1.616842 5.524211-2.56 11.317895-2.694737 17.111579-0.134737 4.176842 0.134737 8.623158 0.808421 12.8 0.134737 1.077895 0.269474 2.021053 0.538948 2.96421 2.155789 13.608421 8.353684 26.004211 17.785263 36.109474l0.269473 0.269474 100.783158 103.073684V436.951579c0 93.911579 36.783158 182.433684 103.747369 249.397895s155.351579 103.747368 249.397895 103.747368c93.911579 0 182.433684-36.783158 249.397894-103.747368 66.694737-66.694737 103.477895-154.947368 103.747369-248.724211l0.40421-7.949474v-0.673684l-0.40421-132.581052 102.669473-103.073685c13.473684-13.743158 20.614737-32.471579 19.671579-51.738947-0.538947-36.917895-30.72-66.829474-67.637894-66.829474z m-244.143158 53.894737H920.252632c7.545263 0 13.743158 6.197895 13.743157 13.877895v1.482105c0.269474 4.176842-1.212632 8.353684-4.176842 11.317895l-118.298947 118.703158 0.404211 154.273684-0.404211 8.623158c0 164.917895-134.197895 299.115789-299.115789 299.115789s-299.115789-134.197895-299.11579-299.115789v-162.627368l-115.873684-118.568422c-2.021053-2.155789-3.233684-4.850526-3.772632-7.814736v-0.134737l-0.134737-1.347369-0.269473-0.943158c-0.134737-0.943158-0.269474-2.021053-0.269474-2.96421 0-1.347368 0.269474-2.694737 0.673684-3.772632 0.269474-0.673684 0.538947-1.212632 0.673684-1.886315 2.290526-4.850526 7.141053-8.084211 12.39579-8.084211h569.397895zM606.315789 744.151579h-53.894736V763.284211C552.421053 788.210526 532.210526 808.421053 507.284211 808.421053S462.147368 788.075789 462.147368 763.284211v-19.132632h-53.894736V763.284211C408.252632 817.852632 452.715789 862.315789 507.284211 862.315789S606.315789 817.852632 606.315789 763.284211v-19.132632z"  horiz-adv-x="1024" />

    


  </font>
</defs>
</svg>
